<svg aria-hidden="true" focusable="false" data-prefix="fad" data-icon="th" class="svg-inline--fa fa-th fa-w-16" role="img" xmlns="http://www.w3.org/2000/svg" viewBox="0 0 512 512"><g class="fa-group"><path class="fa-secondary" fill="currentColor" d="M306.67 352H205.33a24 24 0 0 0-24 24v80a24 24 0 0 0 24 24h101.34a24 24 0 0 0 24-24v-80a24 24 0 0 0-24-24zM488 192H386.67a24 24 0 0 0-24 24v80a24 24 0 0 0 24 24H488a24 24 0 0 0 24-24v-80a24 24 0 0 0-24-24zM306.67 32H205.33a24 24 0 0 0-24 24v80a24 24 0 0 0 24 24h101.34a24 24 0 0 0 24-24V56a24 24 0 0 0-24-24zM125.33 192H24a24 24 0 0 0-24 24v80a24 24 0 0 0 24 24h101.33a24 24 0 0 0 24-24v-80a24 24 0 0 0-24-24z" opacity="0.4"></path><path class="fa-primary" fill="currentColor" d="M488 352H386.67a24 24 0 0 0-24 24v80a24 24 0 0 0 24 24H488a24 24 0 0 0 24-24v-80a24 24 0 0 0-24-24zM306.67 192H205.33a24 24 0 0 0-24 24v80a24 24 0 0 0 24 24h101.34a24 24 0 0 0 24-24v-80a24 24 0 0 0-24-24zM488 32H386.67a24 24 0 0 0-24 24v80a24 24 0 0 0 24 24H488a24 24 0 0 0 24-24V56a24 24 0 0 0-24-24zm-362.67 0H24A24 24 0 0 0 0 56v80a24 24 0 0 0 24 24h101.33a24 24 0 0 0 24-24V56a24 24 0 0 0-24-24zm0 320H24a24 24 0 0 0-24 24v80a24 24 0 0 0 24 24h101.33a24 24 0 0 0 24-24v-80a24 24 0 0 0-24-24z"></path></g></svg>