<svg xmlns="http://www.w3.org/2000/svg" viewBox="0 0 512 512" fill="none" xmlns:v="https://vecta.io/nano"><g clip-path="url(#A)" fill="#000"><path opacity=".4" d="M221.344 363.227V148.844h70.312v214.383h-70.312z"/><path d="M180.914 148.843h151.119c18.809 0 28.204-22.737 14.942-36.035l-75.534-75.656c-3.954-3.942-9.309-6.156-14.893-6.156s-10.939 2.214-14.893 6.156l-75.682 75.665c-13.184 13.315-3.797 36.026 14.941 36.026zm151.119 214.383H181.037c-18.809 0-28.204 22.746-14.941 36.035l75.586 75.586a21.09 21.09 0 0 0 14.879 6.143c5.577 0 10.927-2.209 14.88-6.143l75.525-75.586c13.245-13.385 3.867-36.035-14.933-36.035z"/></g><defs><clipPath id="A"><path fill="#fff" transform="translate(144 31)" d="M0 0h225v450H0z"/></clipPath></defs></svg>