<svg aria-hidden="true" focusable="false" data-prefix="fad" data-icon="grip-lines" class="svg-inline--fa fa-grip-lines fa-w-16" role="img" xmlns="http://www.w3.org/2000/svg" viewBox="0 0 512 512"><g class="fa-group"><path class="fa-secondary" fill="currentColor" d="M512 304v32a16 16 0 0 1-16 16H16a16 16 0 0 1-16-16v-32a16 16 0 0 1 16-16h480a16 16 0 0 1 16 16z" opacity="0.4"></path><path class="fa-primary" fill="currentColor" d="M512 176v32a16 16 0 0 1-16 16H16a16 16 0 0 1-16-16v-32a16 16 0 0 1 16-16h480a16 16 0 0 1 16 16z"></path></g></svg>