<svg xmlns="http://www.w3.org/2000/svg" width="191.17" height="200" viewBox="0 0 191.17 200"><g transform="translate(-3.156 -0.532)"><path d="M65.374,124.969A62.218,62.218,0,1,1,127.593,62.75,62.284,62.284,0,0,1,65.374,124.969Zm0-117.71A55.492,55.492,0,1,0,120.866,62.75,55.555,55.555,0,0,0,65.374,7.258Z" transform="translate(0)" fill="#888"/><path d="M142.135,160.005a3.416,3.416,0,0,1-2.381-.982L58.339,77.595a3.365,3.365,0,0,1,0-4.756l11.892-11.9a3.455,3.455,0,0,1,4.756,0L156.4,142.369a3.366,3.366,0,0,1,0,4.755l-11.892,11.892A3.338,3.338,0,0,1,142.135,160.005ZM65.482,75.214l76.653,76.673,7.137-7.143L72.612,68.07l-7.13,7.143Z" transform="translate(36.941 40.527)" fill="#888"/></g></svg>