<svg aria-hidden="true" focusable="false" data-prefix="fad" data-icon="share-alt-square" class="svg-inline--fa fa-share-alt-square fa-w-14" role="img" xmlns="http://www.w3.org/2000/svg" viewBox="0 0 448 512"><g class="fa-group"><path class="fa-secondary" fill="currentColor" d="M400 32H48A48 48 0 0 0 0 80v352a48 48 0 0 0 48 48h352a48 48 0 0 0 48-48V80a48 48 0 0 0-48-48zm-96 376a56 56 0 0 1-54.26-69.9l-68-40.77a56 56 0 1 1 0-82.66l68-40.77a56 56 0 1 1 16.48 27.43l-68 40.77a56.39 56.39 0 0 1 0 27.8l68 40.77A56 56 0 1 1 304 408z" opacity="0.4"></path><path class="fa-primary" fill="currentColor" d="M360 352a56 56 0 1 1-110.26-13.9l-68-40.77a56 56 0 1 1 0-82.66l68-40.77a56 56 0 1 1 16.48 27.43l-68 40.77a56.39 56.39 0 0 1 0 27.8l68 40.77A56 56 0 0 1 360 352z"></path></g></svg>