<svg aria-hidden="true" focusable="false" data-prefix="fad" data-icon="heading" class="svg-inline--fa fa-heading fa-w-16" role="img" xmlns="http://www.w3.org/2000/svg" viewBox="0 0 512 512"><g class="fa-group"><path class="fa-secondary" fill="currentColor" d="M480 32H320a16 16 0 0 0-16 16v32a16 16 0 0 0 16 16h160a16 16 0 0 0 16-16V48a16 16 0 0 0-16-16zm-288 0H32a16 16 0 0 0-16 16v32a16 16 0 0 0 16 16h160a16 16 0 0 0 16-16V48a16 16 0 0 0-16-16zm0 384H32a16 16 0 0 0-16 16v32a16 16 0 0 0 16 16h160a16 16 0 0 0 16-16v-32a16 16 0 0 0-16-16zm288 0H320a16 16 0 0 0-16 16v32a16 16 0 0 0 16 16h160a16 16 0 0 0 16-16v-32a16 16 0 0 0-16-16z" opacity="0.4"></path><path class="fa-primary" fill="currentColor" d="M352 96h96v320h-96V288H160v128H64V96h96v128h192z"></path></g></svg>